<mxfile host="app.diagrams.net" modified="2023-11-07T22:15:00.062Z" agent="Mozilla/5.0 (Macintosh; Intel Mac OS X 10_15_7) AppleWebKit/605.1.15 (KHTML, like Gecko) Version/16.4 Safari/605.1.15" etag="vsRF83qAN-5Tbdnwy9ic" version="22.0.8" type="device">
  <diagram name="Page-1" id="S46Qy5RoveteEP8ohFF_">
    <mxGraphModel dx="1037" dy="678" grid="1" gridSize="10" guides="1" tooltips="1" connect="1" arrows="1" fold="1" page="1" pageScale="1" pageWidth="1700" pageHeight="1100" math="0" shadow="0">
      <root>
        <mxCell id="0" />
        <mxCell id="1" parent="0" />
        <mxCell id="cbzGbRJbBlH43v5UVWtN-21" value="" style="rounded=0;whiteSpace=wrap;html=1;dashed=1;" vertex="1" parent="1">
          <mxGeometry x="150" y="20" width="530" height="690" as="geometry" />
        </mxCell>
        <mxCell id="cbzGbRJbBlH43v5UVWtN-1" value="Guest User" style="shape=umlActor;verticalLabelPosition=bottom;verticalAlign=top;html=1;outlineConnect=0;" vertex="1" parent="1">
          <mxGeometry x="50" y="170" width="30" height="60" as="geometry" />
        </mxCell>
        <mxCell id="cbzGbRJbBlH43v5UVWtN-5" value="Registered User" style="shape=umlActor;verticalLabelPosition=bottom;verticalAlign=top;html=1;outlineConnect=0;" vertex="1" parent="1">
          <mxGeometry x="50" y="280" width="30" height="60" as="geometry" />
        </mxCell>
        <mxCell id="cbzGbRJbBlH43v5UVWtN-6" value="Airline Agents" style="shape=umlActor;verticalLabelPosition=bottom;verticalAlign=top;html=1;outlineConnect=0;" vertex="1" parent="1">
          <mxGeometry x="50" y="390" width="30" height="60" as="geometry" />
        </mxCell>
        <mxCell id="cbzGbRJbBlH43v5UVWtN-7" value="System Admin" style="shape=umlActor;verticalLabelPosition=bottom;verticalAlign=top;html=1;outlineConnect=0;" vertex="1" parent="1">
          <mxGeometry x="50" y="610" width="30" height="60" as="geometry" />
        </mxCell>
        <mxCell id="cbzGbRJbBlH43v5UVWtN-8" value="Flight Attendants" style="shape=umlActor;verticalLabelPosition=bottom;verticalAlign=top;html=1;outlineConnect=0;" vertex="1" parent="1">
          <mxGeometry x="50" y="60" width="30" height="60" as="geometry" />
        </mxCell>
        <mxCell id="cbzGbRJbBlH43v5UVWtN-9" value="Tourism Agents" style="shape=umlActor;verticalLabelPosition=bottom;verticalAlign=top;html=1;outlineConnect=0;" vertex="1" parent="1">
          <mxGeometry x="50" y="500" width="30" height="60" as="geometry" />
        </mxCell>
        <mxCell id="cbzGbRJbBlH43v5UVWtN-14" value="Bank" style="shape=umlActor;verticalLabelPosition=bottom;verticalAlign=top;html=1;outlineConnect=0;" vertex="1" parent="1">
          <mxGeometry x="740" y="40" width="30" height="60" as="geometry" />
        </mxCell>
        <mxCell id="cbzGbRJbBlH43v5UVWtN-17" value="Company" style="shape=umlActor;verticalLabelPosition=bottom;verticalAlign=top;html=1;outlineConnect=0;" vertex="1" parent="1">
          <mxGeometry x="740" y="180" width="30" height="60" as="geometry" />
        </mxCell>
        <mxCell id="cbzGbRJbBlH43v5UVWtN-19" value="Authentication" style="shape=umlActor;verticalLabelPosition=bottom;verticalAlign=top;html=1;outlineConnect=0;" vertex="1" parent="1">
          <mxGeometry x="740" y="320" width="30" height="60" as="geometry" />
        </mxCell>
        <mxCell id="cbzGbRJbBlH43v5UVWtN-22" value="&lt;b&gt;Flight Reservation Web Application&lt;/b&gt;" style="text;html=1;strokeColor=none;fillColor=none;align=center;verticalAlign=middle;whiteSpace=wrap;rounded=0;" vertex="1" parent="1">
          <mxGeometry x="290" y="20" width="250" height="30" as="geometry" />
        </mxCell>
        <mxCell id="cbzGbRJbBlH43v5UVWtN-23" value="Register" style="ellipse;whiteSpace=wrap;html=1;" vertex="1" parent="1">
          <mxGeometry x="240" y="80" width="90" height="40" as="geometry" />
        </mxCell>
        <mxCell id="cbzGbRJbBlH43v5UVWtN-24" value="Sign In" style="ellipse;whiteSpace=wrap;html=1;" vertex="1" parent="1">
          <mxGeometry x="240" y="140" width="90" height="40" as="geometry" />
        </mxCell>
        <mxCell id="cbzGbRJbBlH43v5UVWtN-25" value="Select Flight" style="ellipse;whiteSpace=wrap;html=1;" vertex="1" parent="1">
          <mxGeometry x="350" y="200" width="90" height="40" as="geometry" />
        </mxCell>
        <mxCell id="cbzGbRJbBlH43v5UVWtN-26" value="Make Payment" style="ellipse;whiteSpace=wrap;html=1;" vertex="1" parent="1">
          <mxGeometry x="460" y="200" width="90" height="40" as="geometry" />
        </mxCell>
        <mxCell id="cbzGbRJbBlH43v5UVWtN-27" value="Email System" style="shape=umlActor;verticalLabelPosition=bottom;verticalAlign=top;html=1;outlineConnect=0;" vertex="1" parent="1">
          <mxGeometry x="740" y="460" width="30" height="60" as="geometry" />
        </mxCell>
        <mxCell id="cbzGbRJbBlH43v5UVWtN-30" value="Database" style="shape=umlActor;verticalLabelPosition=bottom;verticalAlign=top;html=1;outlineConnect=0;" vertex="1" parent="1">
          <mxGeometry x="740" y="600" width="30" height="60" as="geometry" />
        </mxCell>
        <mxCell id="cbzGbRJbBlH43v5UVWtN-31" value="Browse Flight" style="ellipse;whiteSpace=wrap;html=1;" vertex="1" parent="1">
          <mxGeometry x="240" y="200" width="90" height="40" as="geometry" />
        </mxCell>
        <mxCell id="cbzGbRJbBlH43v5UVWtN-32" value="Confirm Payment" style="ellipse;whiteSpace=wrap;html=1;" vertex="1" parent="1">
          <mxGeometry x="470" y="440" width="90" height="40" as="geometry" />
        </mxCell>
        <mxCell id="cbzGbRJbBlH43v5UVWtN-33" value="Confirm Details" style="ellipse;whiteSpace=wrap;html=1;" vertex="1" parent="1">
          <mxGeometry x="470" y="500" width="90" height="40" as="geometry" />
        </mxCell>
        <mxCell id="cbzGbRJbBlH43v5UVWtN-34" value="Save Data" style="ellipse;whiteSpace=wrap;html=1;" vertex="1" parent="1">
          <mxGeometry x="470" y="620" width="90" height="40" as="geometry" />
        </mxCell>
      </root>
    </mxGraphModel>
  </diagram>
</mxfile>
